<mxfile host="app.diagrams.net" modified="2023-09-11T10:55:40.022Z" agent="Mozilla/5.0 (Windows NT 10.0; Win64; x64) AppleWebKit/537.36 (KHTML, like Gecko) Chrome/116.0.0.0 Safari/537.36" etag="CpHk12uMl9UVB-KafQMZ" version="21.6.2" type="github">
  <diagram name="Page-1" id="efa7a0a1-bf9b-a30e-e6df-94a7791c09e9">
    <mxGraphModel dx="939" dy="485" grid="1" gridSize="10" guides="1" tooltips="1" connect="1" arrows="1" fold="1" page="1" pageScale="1" pageWidth="826" pageHeight="1169" background="none" math="0" shadow="0">
      <root>
        <mxCell id="0" />
        <mxCell id="1" parent="0" />
        <mxCell id="V8SPoMi8yffl9223C9iD-115" value="" style="ellipse;whiteSpace=wrap;html=1;aspect=fixed;" vertex="1" parent="1">
          <mxGeometry x="360" y="150" width="80" height="80" as="geometry" />
        </mxCell>
        <mxCell id="V8SPoMi8yffl9223C9iD-132" style="edgeStyle=orthogonalEdgeStyle;rounded=0;orthogonalLoop=1;jettySize=auto;html=1;exitX=0.5;exitY=0;exitDx=0;exitDy=0;entryX=0.5;entryY=1;entryDx=0;entryDy=0;" edge="1" parent="1" source="V8SPoMi8yffl9223C9iD-116" target="V8SPoMi8yffl9223C9iD-115">
          <mxGeometry relative="1" as="geometry" />
        </mxCell>
        <mxCell id="V8SPoMi8yffl9223C9iD-135" style="edgeStyle=orthogonalEdgeStyle;rounded=0;orthogonalLoop=1;jettySize=auto;html=1;exitX=1;exitY=0.5;exitDx=0;exitDy=0;entryX=0;entryY=0.5;entryDx=0;entryDy=0;" edge="1" parent="1" source="V8SPoMi8yffl9223C9iD-116" target="V8SPoMi8yffl9223C9iD-117">
          <mxGeometry relative="1" as="geometry" />
        </mxCell>
        <mxCell id="V8SPoMi8yffl9223C9iD-116" value="" style="ellipse;whiteSpace=wrap;html=1;aspect=fixed;" vertex="1" parent="1">
          <mxGeometry x="300" y="260" width="80" height="80" as="geometry" />
        </mxCell>
        <mxCell id="V8SPoMi8yffl9223C9iD-133" style="edgeStyle=orthogonalEdgeStyle;rounded=0;orthogonalLoop=1;jettySize=auto;html=1;exitX=0.5;exitY=0;exitDx=0;exitDy=0;entryX=0.686;entryY=1.018;entryDx=0;entryDy=0;entryPerimeter=0;" edge="1" parent="1" source="V8SPoMi8yffl9223C9iD-117" target="V8SPoMi8yffl9223C9iD-115">
          <mxGeometry relative="1" as="geometry" />
        </mxCell>
        <mxCell id="V8SPoMi8yffl9223C9iD-136" style="edgeStyle=orthogonalEdgeStyle;rounded=0;orthogonalLoop=1;jettySize=auto;html=1;exitX=1;exitY=0;exitDx=0;exitDy=0;entryX=0;entryY=0.25;entryDx=0;entryDy=0;" edge="1" parent="1" source="V8SPoMi8yffl9223C9iD-117" target="V8SPoMi8yffl9223C9iD-124">
          <mxGeometry relative="1" as="geometry" />
        </mxCell>
        <mxCell id="V8SPoMi8yffl9223C9iD-137" style="edgeStyle=orthogonalEdgeStyle;rounded=0;orthogonalLoop=1;jettySize=auto;html=1;exitX=1;exitY=0.5;exitDx=0;exitDy=0;entryX=-0.01;entryY=0.667;entryDx=0;entryDy=0;entryPerimeter=0;" edge="1" parent="1" source="V8SPoMi8yffl9223C9iD-117" target="V8SPoMi8yffl9223C9iD-121">
          <mxGeometry relative="1" as="geometry">
            <Array as="points">
              <mxPoint x="516" y="368" />
            </Array>
          </mxGeometry>
        </mxCell>
        <mxCell id="V8SPoMi8yffl9223C9iD-139" style="edgeStyle=orthogonalEdgeStyle;rounded=0;orthogonalLoop=1;jettySize=auto;html=1;exitX=1;exitY=0.5;exitDx=0;exitDy=0;entryX=0.5;entryY=1;entryDx=0;entryDy=0;entryPerimeter=0;" edge="1" parent="1" source="V8SPoMi8yffl9223C9iD-117" target="V8SPoMi8yffl9223C9iD-119">
          <mxGeometry relative="1" as="geometry" />
        </mxCell>
        <mxCell id="V8SPoMi8yffl9223C9iD-117" value="" style="ellipse;whiteSpace=wrap;html=1;aspect=fixed;" vertex="1" parent="1">
          <mxGeometry x="436" y="260" width="80" height="80" as="geometry" />
        </mxCell>
        <mxCell id="V8SPoMi8yffl9223C9iD-118" value="" style="shape=cylinder3;whiteSpace=wrap;html=1;boundedLbl=1;backgroundOutline=1;size=15;" vertex="1" parent="1">
          <mxGeometry x="510" y="100" width="60" height="80" as="geometry" />
        </mxCell>
        <mxCell id="V8SPoMi8yffl9223C9iD-119" value="" style="shape=cylinder3;whiteSpace=wrap;html=1;boundedLbl=1;backgroundOutline=1;size=15;" vertex="1" parent="1">
          <mxGeometry x="590" y="100" width="60" height="80" as="geometry" />
        </mxCell>
        <mxCell id="V8SPoMi8yffl9223C9iD-121" value="Telegram" style="whiteSpace=wrap;html=1;aspect=fixed;" vertex="1" parent="1">
          <mxGeometry x="610" y="315" width="80" height="80" as="geometry" />
        </mxCell>
        <mxCell id="V8SPoMi8yffl9223C9iD-122" value="" style="whiteSpace=wrap;html=1;aspect=fixed;" vertex="1" parent="1">
          <mxGeometry x="360" y="400" width="80" height="80" as="geometry" />
        </mxCell>
        <mxCell id="V8SPoMi8yffl9223C9iD-123" value="Console" style="text;html=1;strokeColor=none;fillColor=none;align=center;verticalAlign=middle;whiteSpace=wrap;rounded=0;" vertex="1" parent="1">
          <mxGeometry x="360" y="400" width="80" height="80" as="geometry" />
        </mxCell>
        <mxCell id="V8SPoMi8yffl9223C9iD-124" value="Djinny" style="text;html=1;strokeColor=none;fillColor=none;align=center;verticalAlign=middle;whiteSpace=wrap;rounded=0;" vertex="1" parent="1">
          <mxGeometry x="510" y="140" width="60" height="30" as="geometry" />
        </mxCell>
        <mxCell id="V8SPoMi8yffl9223C9iD-125" value="SQLite" style="text;html=1;strokeColor=none;fillColor=none;align=center;verticalAlign=middle;whiteSpace=wrap;rounded=0;" vertex="1" parent="1">
          <mxGeometry x="590" y="140" width="60" height="30" as="geometry" />
        </mxCell>
        <mxCell id="V8SPoMi8yffl9223C9iD-126" value="Infrastructure" style="text;html=1;strokeColor=none;fillColor=none;align=center;verticalAlign=middle;whiteSpace=wrap;rounded=0;" vertex="1" parent="1">
          <mxGeometry x="446" y="285" width="60" height="30" as="geometry" />
        </mxCell>
        <mxCell id="V8SPoMi8yffl9223C9iD-127" value="Business" style="text;html=1;strokeColor=none;fillColor=none;align=center;verticalAlign=middle;whiteSpace=wrap;rounded=0;" vertex="1" parent="1">
          <mxGeometry x="310" y="285" width="60" height="30" as="geometry" />
        </mxCell>
        <mxCell id="V8SPoMi8yffl9223C9iD-128" value="Domain" style="text;html=1;strokeColor=none;fillColor=none;align=center;verticalAlign=middle;whiteSpace=wrap;rounded=0;" vertex="1" parent="1">
          <mxGeometry x="370" y="175" width="60" height="30" as="geometry" />
        </mxCell>
        <mxCell id="V8SPoMi8yffl9223C9iD-129" value="" style="endArrow=classic;startArrow=classic;html=1;rounded=0;exitX=0.5;exitY=0;exitDx=0;exitDy=0;entryX=0.5;entryY=1;entryDx=0;entryDy=0;" edge="1" parent="1" source="V8SPoMi8yffl9223C9iD-123" target="V8SPoMi8yffl9223C9iD-116">
          <mxGeometry width="50" height="50" relative="1" as="geometry">
            <mxPoint x="375" y="395" as="sourcePoint" />
            <mxPoint x="425" y="345" as="targetPoint" />
            <Array as="points" />
          </mxGeometry>
        </mxCell>
      </root>
    </mxGraphModel>
  </diagram>
</mxfile>
